<?xml version="1.0" standalone="no"?>
<!DOCTYPE svg PUBLIC "-//W3C//DTD SVG 20010904//EN"
 "http://www.w3.org/TR/2001/REC-SVG-20010904/DTD/svg10.dtd">
<svg version="1.0" xmlns="http://www.w3.org/2000/svg"
 width="700.000000pt" height="700.000000pt" viewBox="0 0 700.000000 700.000000"
 preserveAspectRatio="xMidYMid meet">
<metadata>
Created by potrace 1.11, written by Peter Selinger 2001-2013
</metadata>
<g transform="translate(0.000000,700.000000) scale(0.100000,-0.100000)"
fill="#000000" stroke="none">
<path d="M1995 5473 c-249 -28 -503 -142 -695 -310 -494 -434 -566 -1176 -163
-1703 120 -158 290 -294 470 -376 74 -34 217 -80 278 -90 17 -2 55 -9 85 -14
58 -10 320 -6 380 5 152 28 309 87 425 160 48 30 88 55 89 55 6 0 -2 -700 -8
-734 -11 -56 -62 -196 -88 -243 -92 -160 -235 -259 -433 -297 -78 -15 -333
-17 -395 -2 -105 24 -132 32 -188 53 -140 52 -264 138 -350 244 l-55 67 -26
-31 c-14 -18 -35 -41 -46 -53 -11 -11 -45 -49 -75 -84 -30 -35 -64 -71 -74
-81 -17 -17 -18 -22 -6 -44 24 -44 176 -183 262 -239 139 -91 339 -171 475
-190 21 -3 67 -10 103 -15 71 -10 325 -7 405 4 147 21 303 79 420 156 65 42
191 157 236 215 96 124 185 354 205 529 4 33 8 299 8 591 l1 531 86 109 c94
119 106 137 313 439 122 177 289 403 357 480 116 132 270 275 372 344 237 160
590 189 855 70 223 -100 403 -302 481 -538 55 -169 57 -319 7 -526 -9 -39 -34
-100 -63 -155 -206 -390 -650 -568 -1073 -428 -174 57 -324 179 -487 396 -46
61 -88 112 -91 112 -4 0 -28 -31 -54 -68 -26 -37 -75 -105 -108 -151 -70 -96
-72 -79 26 -197 189 -227 376 -363 609 -442 151 -51 227 -64 391 -66 377 -7
723 151 966 439 75 89 67 78 120 165 138 228 205 514 175 750 -13 101 -16 117
-32 181 -133 514 -568 902 -1081 964 -47 6 -261 7 -289 1 -11 -2 -42 -7 -70
-11 -275 -39 -513 -172 -781 -440 -200 -199 -323 -355 -577 -732 -285 -423
-465 -637 -658 -782 -243 -183 -594 -206 -899 -59 -98 47 -141 78 -225 163
-220 219 -309 543 -232 846 73 285 292 521 572 617 222 76 471 60 679 -45 151
-76 249 -164 376 -341 36 -50 67 -91 70 -91 3 0 50 63 105 140 55 77 105 146
112 153 9 10 4 23 -25 58 -20 25 -48 60 -62 78 -70 94 -217 222 -335 292 -98
59 -276 131 -355 144 -14 3 -50 10 -80 16 -53 10 -273 18 -335 11z"/>
</g>
</svg>
